<?xml version="1.0" standalone="no"?>
<!DOCTYPE svg PUBLIC "-//W3C//DTD SVG 20010904//EN"
 "http://www.w3.org/TR/2001/REC-SVG-20010904/DTD/svg10.dtd">
<svg version="1.0" xmlns="http://www.w3.org/2000/svg"
 width="506.000000pt" height="506.000000pt" viewBox="0 0 506.000000 506.000000"
 preserveAspectRatio="xMidYMid meet">

<g transform="translate(0.000000,506.000000) scale(0.100000,-0.100000)"
fill="#000000" stroke="none">
<path d="M2240 5049 c-66 -7 -140 -21 -195 -38 -16 -5 -82 -12 -145 -16 -203
-11 -245 -17 -245 -38 0 -15 -19 -25 -86 -47 -47 -15 -126 -47 -175 -71 -49
-23 -98 -43 -109 -44 -11 -1 -31 -5 -45 -10 -24 -7 -24 -8 -5 -16 19 -7 19 -8
-2 -8 -28 -1 -72 -20 -98 -42 -11 -9 -33 -23 -50 -30 -18 -8 -31 -23 -33 -36
-2 -13 -19 -32 -40 -45 -20 -12 -39 -24 -42 -28 -3 -3 -30 -24 -60 -46 -30
-23 -89 -76 -130 -119 -41 -43 -90 -93 -107 -111 -18 -18 -33 -38 -33 -44 0
-7 -8 -24 -19 -38 -36 -52 -63 -118 -66 -162 -1 -25 -11 -76 -20 -115 -20 -81
-57 -129 -144 -188 -31 -20 -78 -53 -105 -72 l-48 -35 -119 0 -119 0 0 -115
c0 -113 0 -115 23 -115 42 0 53 -15 39 -52 -24 -61 -48 -230 -41 -288 5 -38 3
-67 -8 -98 -16 -50 -14 -184 6 -267 7 -27 14 -59 17 -71 2 -12 10 -40 19 -63
8 -24 15 -82 15 -139 1 -88 -1 -104 -30 -172 -32 -76 -48 -176 -36 -225 4 -16
19 -30 40 -39 19 -8 42 -26 51 -40 10 -14 23 -26 30 -26 17 0 37 -48 29 -72
-3 -10 0 -26 7 -34 14 -17 23 -61 44 -224 8 -63 19 -124 25 -135 5 -11 13 -43
18 -72 10 -59 47 -112 79 -112 38 -1 50 -25 57 -118 4 -48 9 -102 12 -120 6
-31 5 -32 -78 -71 -91 -43 -168 -114 -240 -222 -20 -30 -46 -65 -57 -77 -17
-17 -21 -35 -21 -83 0 -33 2 -60 4 -60 3 0 17 5 33 11 15 6 40 11 56 11 20 -1
27 4 27 18 0 39 34 91 76 115 86 51 218 196 270 298 9 18 34 53 55 78 46 55
93 73 170 66 30 -3 95 -7 146 -9 51 -2 95 -7 99 -10 17 -17 -14 -62 -111 -162
-106 -108 -122 -138 -79 -144 15 -2 23 4 27 20 4 12 9 19 13 15 4 -3 16 -1 28
5 11 7 29 11 38 10 11 -2 18 5 20 20 4 31 78 59 108 40 11 -6 28 -12 38 -12
11 0 27 -9 38 -21 15 -16 20 -18 29 -7 5 7 19 13 30 13 19 0 20 8 23 110 3 94
7 113 23 128 13 12 17 23 11 30 -5 7 -6 39 -2 72 4 33 3 61 -1 63 -11 4 1 35
18 45 10 6 10 13 3 28 -9 16 -7 19 9 19 10 0 22 8 25 17 5 13 9 14 19 4 9 -10
9 -15 -4 -24 -14 -11 -10 -12 22 -12 38 0 49 8 29 20 -5 3 -10 15 -10 26 0 10
5 19 10 19 6 0 10 7 10 15 0 8 -4 15 -10 15 -17 0 -11 58 8 70 16 11 16 11 0
6 -10 -3 -20 -1 -23 3 -7 12 15 71 26 71 5 0 9 11 9 25 0 14 -5 25 -11 25 -5
0 -9 8 -7 17 1 10 -1 24 -5 30 -5 7 -10 30 -13 50 -3 21 -7 54 -10 73 -3 19
-6 101 -7 183 0 81 -4 147 -7 147 -4 0 -5 14 -2 30 2 17 -1 43 -7 58 -9 22
-17 355 -12 492 0 14 1 48 1 75 1 28 5 52 11 53 5 2 9 16 9 32 0 38 10 61 23
53 7 -4 8 9 4 38 -5 42 -5 43 10 22 19 -29 29 -29 37 -1 4 18 8 20 18 10 10
-10 10 -17 0 -32 -11 -17 -10 -20 8 -20 23 0 44 -34 37 -62 -3 -11 2 -27 14
-39 10 -10 16 -25 13 -34 -5 -11 -2 -13 10 -9 12 5 16 0 16 -16 0 -19 -2 -20
-15 -10 -10 8 -15 9 -15 2 0 -6 10 -17 23 -23 12 -7 27 -18 32 -26 8 -11 15
-9 35 9 14 13 44 36 68 52 23 16 42 32 42 37 0 4 16 15 35 24 19 9 39 23 45
30 6 8 18 11 26 8 7 -3 17 2 20 11 3 9 17 16 29 16 13 0 27 5 31 11 15 24 280
-2 467 -45 86 -20 223 -22 230 -3 3 7 -4 19 -14 25 -12 8 -19 24 -19 41 0 17
-4 32 -9 35 -5 3 -42 11 -82 17 -41 6 -94 20 -119 29 -25 10 -57 16 -71 13
-15 -3 -30 0 -33 6 -4 6 -18 11 -32 11 -18 0 -24 5 -24 21 0 20 -4 21 -46 16
-41 -4 -48 -2 -74 26 -26 28 -34 31 -97 32 -71 1 -83 -3 -164 -61 -25 -18 -61
-36 -82 -42 -35 -10 -40 -8 -69 20 -24 23 -33 27 -39 16 -7 -9 -11 -10 -16 -2
-12 17 -61 14 -69 -5 -4 -9 -6 -32 -6 -51 l0 -35 -11 38 c-6 20 -14 37 -19 37
-11 0 -7 139 4 146 12 7 10 52 -2 59 -8 5 -7 11 1 21 9 11 9 18 1 26 -6 6 -8
16 -6 23 3 7 1 16 -5 20 -6 3 -11 19 -11 36 0 16 -9 38 -20 49 -18 18 -18 24
3 21 15 -2 6 19 -13 29 -17 9 -18 14 -7 30 10 18 8 23 -14 43 -17 14 -30 37
-34 62 -4 22 -9 53 -12 68 -3 15 -1 27 3 26 5 -1 25 2 44 6 28 7 31 9 15 16
-18 6 -18 8 6 17 15 6 29 18 32 26 4 9 12 16 19 16 15 0 88 65 88 77 0 5 9 16
19 25 10 9 23 24 29 34 9 15 14 16 36 6 21 -10 26 -9 26 3 0 8 6 12 14 9 7 -3
27 6 44 20 20 17 42 26 66 26 29 0 37 4 42 24 6 27 47 49 74 41 10 -3 21 -1
25 5 3 5 17 10 29 10 13 0 40 7 61 16 21 8 44 13 53 9 8 -3 24 2 34 12 28 25
336 32 407 8 60 -20 186 -22 208 -3 17 14 73 18 73 6 0 -18 58 -7 71 12 10 15
28 22 64 25 28 2 76 7 107 10 53 5 57 4 60 -17 2 -13 10 -23 18 -24 8 0 23 -5
34 -9 10 -4 30 -9 45 -10 14 -1 34 -3 44 -3 9 -1 17 -8 17 -16 0 -10 16 -17
46 -22 27 -4 44 -11 41 -18 -7 -17 11 -56 25 -56 7 0 26 -13 41 -30 16 -16 33
-30 39 -30 6 0 17 -8 24 -17 12 -17 13 -16 14 5 0 38 24 24 45 -26 11 -26 20
-54 21 -62 3 -41 5 -48 23 -69 10 -11 21 -39 25 -60 3 -21 14 -57 24 -80 l19
-41 8 87 c8 89 12 133 17 167 2 11 13 31 26 45 21 23 22 25 5 35 -10 5 -21 14
-25 20 -9 13 1 106 12 121 15 19 16 111 1 129 -8 9 -14 31 -14 49 0 39 -14 59
-38 52 -28 -9 -91 52 -87 84 2 17 8 25 18 23 8 -2 -12 24 -45 57 -42 43 -84
73 -142 101 -82 40 -103 60 -103 100 0 11 -8 23 -17 26 -10 3 -31 12 -46 20
-16 7 -35 14 -43 14 -8 0 -14 4 -14 10 0 17 -77 60 -112 62 -42 2 -88 25 -161
81 -32 24 -77 49 -100 54 -23 6 -50 14 -59 17 -12 6 -17 2 -20 -13 -3 -19 -5
-20 -29 -7 -14 7 -53 16 -85 20 -119 13 -133 17 -127 32 4 10 24 14 78 14 41
0 77 5 80 10 3 6 0 11 -7 11 -49 5 -255 3 -308 -2z m94 -38 c7 -11 -78 -23
-101 -14 -15 6 -14 8 7 14 36 10 88 10 94 0z m1061 -992 c11 -17 -1 -21 -15
-4 -8 9 -8 15 -2 15 6 0 14 -5 17 -11z m-2010 -961 c4 -22 3 -38 -4 -42 -7 -5
-11 2 -11 18 0 33 -10 57 -21 50 -11 -6 -11 -1 -3 20 9 23 31 -3 39 -46z
m-544 -651 c22 -17 39 -51 39 -81 0 -13 4 -26 10 -28 11 -3 21 -61 24 -127 1
-25 7 -46 13 -48 7 -3 29 -18 50 -35 21 -17 53 -37 71 -45 22 -9 32 -19 28
-28 -2 -7 -8 -30 -12 -49 -3 -20 -10 -39 -15 -42 -32 -19 19 -89 58 -79 26 6
29 3 37 -57 7 -44 5 -49 -18 -59 -17 -8 -26 -22 -29 -43 -4 -28 -5 -29 -11 -9
-6 15 -18 22 -43 25 l-35 4 5 -50 c2 -28 8 -62 12 -75 5 -16 5 -22 -2 -18 -14
9 -43 98 -43 132 0 14 -7 28 -15 31 -16 6 -129 174 -166 245 -15 30 -23 65
-25 109 -1 36 -7 81 -13 100 -19 62 -7 193 21 227 13 16 38 16 59 0z m159
-154 c17 -27 29 -57 28 -67 -4 -27 -28 -33 -28 -7 0 16 -8 20 -37 23 -36 3
-38 5 -36 36 1 32 18 62 34 62 5 0 22 -21 39 -47z"/>
<path d="M986 1782 c-4 -13 -5 -26 -2 -29 10 -11 18 4 14 29 l-4 23 -8 -23z"/>
<path d="M2610 5013 c1 -18 18 -35 24 -24 4 6 4 16 1 21 -7 12 -25 13 -25 3z"/>
<path d="M3680 4211 c0 -5 5 -13 10 -16 6 -3 10 -2 10 4 0 5 -4 13 -10 16 -5
3 -10 2 -10 -4z"/>
<path d="M3569 3516 c-5 -158 -1 -266 10 -266 6 0 11 21 13 48 l3 47 210 -3
c116 -1 424 -7 685 -12 261 -6 496 -10 523 -10 l47 0 0 94 c0 66 -4 95 -12 99
-7 2 -110 5 -228 6 -118 1 -287 4 -375 6 -88 3 -315 7 -505 11 -217 3 -349 9
-357 16 -10 8 -13 0 -14 -36z"/>
<path d="M1480 3269 c0 -5 5 -7 10 -4 6 3 10 8 10 11 0 2 -4 4 -10 4 -5 0 -10
-5 -10 -11z"/>
<path d="M3510 3139 c-25 -11 -46 -24 -48 -30 -2 -5 -9 -9 -16 -9 -8 0 -24 -8
-37 -18 -28 -22 -113 -52 -145 -52 -27 0 -97 -31 -103 -45 -4 -9 -65 -75 -163
-175 -36 -37 -48 -60 -30 -60 5 0 17 9 27 20 20 22 60 27 71 8 4 -6 -4 -21
-20 -35 -30 -25 -27 -28 21 -14 23 7 35 6 42 -3 6 -7 8 -15 5 -18 -2 -3 2 -24
11 -46 15 -37 21 -42 67 -52 41 -8 54 -8 67 4 9 7 25 16 37 20 28 9 49 50 48
97 -2 44 9 48 56 24 18 -9 30 -23 30 -35 0 -40 33 -140 47 -140 7 0 12 3 11 8
-7 25 14 73 37 82 l25 9 -21 37 c-11 20 -18 43 -15 50 3 8 1 14 -5 14 -6 0 -8
9 -4 19 4 14 0 23 -14 30 -31 17 -32 14 -9 -24 l20 -36 -43 18 c-34 14 -73 18
-175 18 -134 0 -152 6 -99 35 13 7 26 21 28 31 3 10 11 21 19 23 120 38 160
46 228 46 64 0 82 -4 106 -22 16 -12 32 -27 36 -32 11 -17 36 13 53 63 15 45
14 50 -7 102 -29 71 -55 109 -76 108 -9 0 -37 -9 -62 -20z m-230 -394 c0 -8
-7 -15 -15 -15 -8 0 -15 7 -15 15 0 8 7 15 15 15 8 0 15 -7 15 -15z m-48 -30
c0 -5 -5 -11 -11 -13 -6 -2 -11 4 -11 13 0 9 5 15 11 13 6 -2 11 -8 11 -13z"/>
<path d="M1867 2829 c-58 -23 -107 -58 -107 -76 0 -21 -63 -136 -88 -161 -12
-12 -22 -26 -22 -31 0 -14 31 -22 45 -11 16 14 72 -9 78 -32 7 -25 19 -23 51
11 28 29 28 29 7 40 -28 16 -26 30 10 74 36 44 46 46 60 10 12 -33 43 -63 82
-81 48 -21 77 -15 118 27 36 36 39 43 39 95 0 47 3 56 18 56 23 0 97 -27 154
-55 50 -25 71 -23 35 5 -76 59 -200 86 -349 76 -64 -4 -88 -2 -91 7 -5 17 4
47 15 47 5 0 6 -6 2 -12 -5 -9 -2 -9 9 1 42 34 8 39 -66 10z m213 -114 c0 -8
-7 -15 -15 -15 -16 0 -20 12 -8 23 11 12 23 8 23 -8z m-39 -38 c-13 -13 -26
-3 -16 12 3 6 11 8 17 5 6 -4 6 -10 -1 -17z"/>
<path d="M2275 2820 c3 -5 8 -10 11 -10 2 0 4 5 4 10 0 6 -5 10 -11 10 -5 0
-7 -4 -4 -10z"/>
<path d="M2310 2811 c0 -13 69 -55 77 -47 4 3 4 7 2 9 -2 1 -18 12 -36 25 -35
24 -43 27 -43 13z"/>
<path d="M3385 2551 c-7 -12 12 -24 25 -16 11 7 4 25 -10 25 -5 0 -11 -4 -15
-9z"/>
<path d="M1305 1750 c-8 -13 4 -32 16 -25 12 8 12 35 0 35 -6 0 -13 -4 -16
-10z"/>
<path d="M1301 1494 c0 -11 3 -14 6 -6 3 7 2 16 -1 19 -3 4 -6 -2 -5 -13z"/>
<path d="M2180 1372 c0 -13 87 -67 123 -76 21 -5 35 -1 54 14 28 22 32 19 -67
44 -36 9 -75 19 -87 23 -13 3 -23 1 -23 -5z"/>
<path d="M2973 1343 c-22 -8 -14 -23 12 -23 16 0 25 6 25 15 0 15 -14 18 -37
8z"/>
<path d="M2705 1290 c-16 -7 -17 -9 -3 -9 9 -1 20 4 23 9 7 11 7 11 -20 0z"/>
<path d="M4000 850 c0 -5 5 -10 10 -10 6 0 10 5 10 10 0 6 -4 10 -10 10 -5 0
-10 -4 -10 -10z"/>
<path d="M3751 807 c-6 -8 -12 -24 -13 -38 -4 -36 34 -38 61 -3 11 15 21 33
21 40 0 18 -54 18 -69 1z"/>
<path d="M1790 740 c0 -5 5 -10 11 -10 5 0 7 5 4 10 -3 6 -8 10 -11 10 -2 0
-4 -4 -4 -10z"/>
<path d="M3502 684 c-17 -19 -26 -38 -22 -45 6 -8 23 2 56 33 46 44 47 46 22
46 -17 0 -37 -12 -56 -34z"/>
<path d="M3903 565 c-18 -20 -16 -23 12 -21 16 0 24 6 23 15 -4 20 -21 23 -35
6z"/>
<path d="M4590 552 c-60 -23 -147 -74 -190 -112 l-35 -31 50 27 c28 15 84 47
126 70 42 24 81 44 87 44 7 0 12 5 12 10 0 12 5 13 -50 -8z"/>
<path d="M4171 500 c-14 -34 -9 -60 13 -60 14 0 48 69 39 83 -10 17 -39 5 -52
-23z"/>
<path d="M3798 513 c6 -2 18 -2 25 0 6 3 1 5 -13 5 -14 0 -19 -2 -12 -5z"/>
<path d="M3880 504 c0 -11 5 -14 18 -9 9 4 23 8 30 8 27 1 10 17 -18 17 -21 0
-30 -5 -30 -16z"/>
<path d="M3645 390 c-11 -18 5 -31 21 -16 8 8 14 17 14 20 0 10 -28 7 -35 -4z"/>
<path d="M2746 331 c-41 -81 -116 -189 -145 -212 -14 -11 -43 -33 -65 -50 -21
-16 -35 -29 -30 -29 16 0 78 42 109 74 56 55 178 258 164 270 -2 2 -17 -22
-33 -53z"/>
<path d="M4206 311 c-27 -29 -15 -50 12 -23 22 22 29 42 14 42 -5 0 -17 -9
-26 -19z"/>
<path d="M3425 258 c-7 -23 -11 -88 -5 -88 14 1 27 18 37 52 9 30 8 38 -4 42
-21 8 -23 8 -28 -6z"/>
<path d="M216 113 c-4 -9 -1 -20 5 -24 6 -4 8 -12 5 -18 -4 -6 -3 -11 3 -11 6
0 10 16 9 35 -1 37 -12 46 -22 18z"/>
<path d="M4750 90 c0 -12 8 -12 35 0 18 8 17 9 -7 9 -16 1 -28 -3 -28 -9z"/>
<path d="M4620 65 c-29 -17 -60 -19 -60 -5 0 6 -6 7 -17 1 -10 -5 -37 -17 -60
-27 -24 -11 -43 -22 -43 -26 0 -17 92 -7 142 16 59 26 103 43 133 49 11 3 0 5
-25 5 -25 1 -56 -5 -70 -13z"/>
<path d="M3185 61 c-3 -6 -17 -11 -31 -11 -21 0 -29 -9 -25 -32 0 -4 -6 -5
-14 -2 -8 4 -15 1 -15 -5 0 -6 11 -11 25 -11 14 0 25 4 25 9 0 5 9 12 19 16
11 3 22 13 25 22 8 19 1 29 -9 14z"/>
</g>
</svg>
